<svg width="300" height="300" viewBox="0 0 300 300" fill="none" xmlns="http://www.w3.org/2000/svg">
<path d="M283.339 81.2928C299.235 112.141 303.943 147.547 296.66 181.478C289.377 215.409 270.555 245.764 243.4 267.373C216.245 288.982 182.438 300.506 147.739 299.983C113.039 299.46 79.5949 286.921 53.1039 264.504C26.6128 242.086 8.71419 211.177 2.45778 177.042C-3.79863 142.908 1.97424 107.66 18.7928 77.3043C35.6113 46.9488 62.4349 23.364 94.6931 10.5685C126.951 -2.22705 162.648 -3.44165 195.702 7.13165L150 150L283.339 81.2928Z" fill="#3F3930"/>
<path d="M190.002 129.388C194.77 138.642 196.183 149.264 193.998 159.443C191.813 169.623 186.167 178.729 178.02 185.212C169.874 191.694 159.731 195.152 149.322 194.995C138.912 194.838 128.878 191.076 120.931 184.351C112.984 177.626 107.614 168.353 105.737 158.113C103.86 147.872 105.592 137.298 110.638 128.191C115.683 119.085 123.73 112.009 133.408 108.171C143.085 104.332 153.794 103.968 163.71 107.139L150 150L190.002 129.388Z" fill="#FBE4BE"/>
<path d="M123.986 258.662C123.566 260.417 121.801 261.504 120.059 261.034C105.284 257.05 91.4414 250.154 79.3497 240.739C66.3982 230.655 55.7554 217.915 48.1369 203.375C40.5184 188.836 36.1007 172.834 35.1808 156.445C34.3219 141.145 36.5302 125.838 41.6637 111.422C42.269 109.722 44.1668 108.89 45.8487 109.543V109.543C47.5306 110.197 48.3595 112.088 47.7571 113.789C42.9596 127.335 40.898 141.71 41.7046 156.079C42.5723 171.537 46.739 186.629 53.9247 200.343C61.1103 214.056 71.1483 226.072 83.364 235.583C94.7197 244.425 107.713 250.912 121.581 254.677C123.322 255.149 124.406 256.908 123.986 258.662V258.662Z" fill="white"/>
<path d="M111.017 231.316C110.379 232.637 108.79 233.194 107.488 232.519C91.1589 224.059 77.6682 210.961 68.7307 194.844C59.7933 178.726 55.8277 160.346 57.3001 142.015C57.4175 140.553 58.7322 139.5 60.1901 139.658V139.658C61.648 139.817 62.6968 141.128 62.5819 142.59C61.2268 159.83 64.9699 177.11 73.3752 192.268C81.7806 207.426 94.4557 219.753 109.797 227.734C111.098 228.411 111.654 229.995 111.017 231.316V231.316Z" fill="white"/>
</svg>
