<svg width="312" height="460" viewBox="0 0 312 460" fill="none" xmlns="http://www.w3.org/2000/svg">
<path d="M283.339 81.2928C299.235 112.141 303.943 147.547 296.66 181.478C289.377 215.409 270.555 245.764 243.4 267.373C216.245 288.982 182.438 300.506 147.739 299.983C113.039 299.46 79.5949 286.921 53.1039 264.504C26.6128 242.086 8.71419 211.177 2.45778 177.042C-3.79863 142.908 1.97424 107.66 18.7928 77.3043C35.6113 46.9488 62.4349 23.364 94.6931 10.5685C126.951 -2.22705 162.648 -3.44165 195.702 7.13165L150 150L283.339 81.2928Z" fill="#3F3930"/>
<path d="M190.002 129.388C194.77 138.642 196.183 149.264 193.998 159.443C191.813 169.623 186.167 178.729 178.02 185.212C169.874 191.694 159.731 195.152 149.322 194.995C138.912 194.838 128.878 191.076 120.931 184.351C112.984 177.626 107.614 168.353 105.737 158.113C103.86 147.872 105.592 137.298 110.638 128.191C115.683 119.085 123.73 112.009 133.408 108.171C143.085 104.332 153.794 103.968 163.71 107.139L150 150L190.002 129.388Z" fill="#FBE4BE"/>
<path d="M123.986 258.662C123.566 260.417 121.801 261.504 120.059 261.034C105.284 257.05 91.4414 250.154 79.3497 240.739C66.3982 230.655 55.7554 217.915 48.1369 203.375C40.5184 188.836 36.1007 172.834 35.1808 156.445C34.3219 141.145 36.5302 125.838 41.6637 111.422C42.269 109.722 44.1668 108.89 45.8487 109.543V109.543C47.5306 110.197 48.3595 112.088 47.7571 113.789C42.9596 127.335 40.898 141.71 41.7046 156.079C42.5723 171.537 46.739 186.629 53.9247 200.343C61.1103 214.056 71.1483 226.072 83.364 235.583C94.7197 244.425 107.713 250.912 121.581 254.677C123.322 255.149 124.406 256.908 123.986 258.662V258.662Z" fill="white"/>
<path d="M111.017 231.316C110.379 232.637 108.79 233.194 107.488 232.519C91.1589 224.059 77.6682 210.961 68.7307 194.844C59.7933 178.726 55.8277 160.346 57.3001 142.015C57.4175 140.553 58.7322 139.5 60.1901 139.658V139.658C61.648 139.817 62.6968 141.128 62.5819 142.59C61.2268 159.83 64.9699 177.11 73.3752 192.268C81.7806 207.426 94.4557 219.753 109.797 227.734C111.098 228.411 111.654 229.995 111.017 231.316V231.316Z" fill="white"/>
<path d="M13.3 372.2C11.3667 370.6 9.9 368.633 8.9 366.3C7.96667 363.967 7.5 361.433 7.5 358.7C7.5 355.633 8.06667 352.767 9.2 350.1C10.3333 347.367 11.8333 344.933 13.7 342.8C15.6333 340.6 17.8333 338.7 20.3 337.1C22.8333 335.5 25.5 334.267 28.3 333.4C30.6333 332.6 32.9667 332.067 35.3 331.8C37.6333 331.467 39.9667 331.233 42.3 331.1H43.4C47.1333 331.1 51 331.6 55 332.6C59 333.533 62.6 335.333 65.8 338L72.7 343.8C75.0333 345.8 76.8667 348.167 78.2 350.9C79.6 353.567 80.3 356.467 80.3 359.6C80.3 363.533 79.3 367.1 77.3 370.3C75.3667 373.5 72.7667 376.133 69.5 378.2C70.7 379 71.6333 379.933 72.3 381C73.0333 382 73.5667 383.133 73.9 384.4C74.3 385.6 74.5333 386.867 74.6 388.2C74.7333 389.467 74.8 390.733 74.8 392L80.2 396.5C81.3333 396.5 82.2667 396.9 83 397.7C83.8 398.5 84.2 399.433 84.2 400.5C84.2 401.9 84.0667 403.433 83.8 405.1C83.5333 406.7 83.1667 408.3 82.7 409.9C82.2333 411.5 81.6333 413.033 80.9 414.5C80.2333 415.967 79.4667 417.233 78.6 418.3C77.4667 419.633 76.0667 420.733 74.4 421.6C72.7333 422.533 70.7333 423 68.4 423C66.8 423 65.4 422.767 64.2 422.3C63 421.833 61.9333 421.233 61 420.5L54.1 414.7C53.3667 414.167 52.7333 413.533 52.2 412.8C51.7333 412.067 51.3333 411.3 51 410.5C49.1333 414.233 46.7 417.1 43.7 419.1C40.7667 421.1 37.1333 422.1 32.8 422.1C30 422.1 27.3667 421.667 24.9 420.8C22.5 420 20.3667 418.833 18.5 417.3L11.6 411.5C9.6 409.767 8 407.667 6.8 405.2C5.66667 402.733 5.1 399.9 5.1 396.7C5.1 394.433 5.43333 392.233 6.1 390.1C6.76667 387.967 7.73333 386.033 9 384.3C10.3333 382.567 11.9 381.133 13.7 380C15.5667 378.867 17.7 378.167 20.1 377.9L13.3 372.2ZM112.191 374.1C113.457 375.167 114.457 376.5 115.191 378.1C115.991 379.633 116.391 381.467 116.391 383.6C116.391 384.867 116.224 386.1 115.891 387.3L122.391 392.7C123.191 393.367 123.591 394.333 123.591 395.6L123.291 397.3L122.791 398.7L121.691 401.1C120.757 403.1 119.491 405 117.891 406.8C116.357 408.533 114.591 410.067 112.591 411.4C110.657 412.733 108.557 413.767 106.291 414.5C104.091 415.3 101.891 415.7 99.6906 415.7C96.9573 415.7 94.4906 415.3 92.2906 414.5C90.1573 413.7 88.224 412.6 86.4906 411.2L79.5906 405.4C77.2573 403.467 75.4906 401.067 74.2906 398.2C73.0906 395.333 72.4906 392.167 72.4906 388.7C72.4906 385.5 73.024 382.467 74.0906 379.6C75.0906 376.733 76.524 374.2 78.3906 372C80.324 369.8 82.6573 368.067 85.3906 366.8C88.124 365.467 91.1573 364.8 94.4906 364.8C96.424 364.8 98.324 365.1 100.191 365.7C102.124 366.233 103.824 367.1 105.291 368.3L112.191 374.1ZM144.323 331.2C150.523 331.2 155.557 332.833 159.423 336.1L166.323 341.9C168.523 343.767 170.223 346.133 171.423 349C172.69 351.8 173.323 355.033 173.323 358.7C173.323 359.633 173.257 360.6 173.123 361.6C173.057 362.533 172.957 363.467 172.823 364.4C172.09 368.267 171.457 372.133 170.923 376C170.457 379.867 170.223 383.8 170.223 387.8C170.223 388.333 170.223 388.9 170.223 389.5C170.223 390.1 170.257 390.733 170.323 391.4L170.923 390.8C172.257 389.2 173.357 387.267 174.223 385C175.09 382.733 175.823 380.6 176.423 378.6C176.757 377.467 177.057 376.4 177.323 375.4C177.59 374.4 177.823 373.533 178.023 372.8C178.557 370.6 179.057 368.4 179.523 366.2C179.99 364 180.49 361.8 181.023 359.6C181.69 356.8 182.357 354.033 183.023 351.3C183.757 348.5 184.59 345.733 185.523 343C186.19 341.133 187.057 339.367 188.123 337.7C189.19 336.033 190.423 334.6 191.823 333.4C193.29 332.133 194.923 331.167 196.723 330.5C198.523 329.767 200.457 329.4 202.523 329.4C204.323 329.4 206.09 329.733 207.823 330.4C209.623 331 211.257 331.9 212.723 333.1L219.623 338.9C220.957 340.033 222.057 341.433 222.923 343.1C223.79 344.7 224.223 346.567 224.223 348.7C224.223 350.3 223.957 351.8 223.423 353.2C222.89 354.6 222.123 355.833 221.123 356.9C220.19 357.967 219.023 358.833 217.623 359.5C216.29 360.1 214.823 360.4 213.223 360.4L209.523 357.3C208.723 357.3 207.99 357.633 207.323 358.3C206.657 358.9 206.057 359.667 205.523 360.6C204.99 361.467 204.523 362.367 204.123 363.3C203.79 364.167 203.523 364.9 203.323 365.5C202.19 368.5 201.19 371.933 200.323 375.8C199.457 379.6 198.49 383.5 197.423 387.5C196.423 391.167 195.223 395.033 193.823 399.1C192.49 403.167 190.723 406.9 188.523 410.3C186.39 413.7 183.723 416.5 180.523 418.7C177.323 420.967 173.423 422.1 168.823 422.1C166.823 422.1 165.023 421.8 163.423 421.2C161.89 420.6 160.523 419.767 159.323 418.7L152.423 413C150.89 411.733 149.623 410.2 148.623 408.4C147.623 406.667 146.823 404.867 146.223 403C145.623 401.067 145.19 399.167 144.923 397.3C144.657 395.367 144.523 393.633 144.523 392.1C144.523 390.3 144.59 388.533 144.723 386.8C144.857 385 145.023 383.233 145.223 381.5C144.223 381.7 143.123 381.8 141.923 381.8C139.79 381.8 137.823 381.467 136.023 380.8C134.223 380.067 132.657 379.133 131.323 378L124.423 372.2C122.157 370.333 120.457 368.033 119.323 365.3C118.19 362.5 117.623 359.633 117.623 356.7C117.623 352.767 118.29 349.233 119.623 346.1C120.957 342.967 122.79 340.3 125.123 338.1C127.523 335.9 130.357 334.2 133.623 333C136.89 331.8 140.457 331.2 144.323 331.2ZM139.123 354L138.523 353.1C138.723 353.567 138.923 353.867 139.123 354ZM203.423 351.4C203.49 351.467 203.523 351.5 203.523 351.5V351.2L203.923 351.6L203.523 351V351.2C203.523 351.267 203.49 351.3 203.423 351.3C203.423 351.3 203.423 351.333 203.423 351.4ZM213.052 360.2C213.919 360.933 214.586 361.833 215.052 362.9C215.586 363.9 215.852 365 215.852 366.2C215.852 367.4 215.586 368.533 215.052 369.6C214.586 370.6 213.919 371.467 213.052 372.2C213.719 372.667 214.319 373.3 214.852 374.1C215.386 374.833 215.652 375.767 215.652 376.9C215.652 377.833 215.586 378.8 215.452 379.8C215.386 380.8 215.319 381.8 215.252 382.8L214.952 386.1C215.552 386.167 216.152 386.467 216.752 387L223.652 392.7C224.452 393.367 224.852 394.333 224.852 395.6L224.652 397L223.552 400.8C223.019 402.667 222.319 404.5 221.452 406.3C220.652 408.033 219.652 409.6 218.452 411C217.252 412.4 215.819 413.533 214.152 414.4C212.552 415.267 210.652 415.7 208.452 415.7C207.052 415.7 205.819 415.5 204.752 415.1C203.686 414.7 202.752 414.167 201.952 413.5L195.052 407.7C194.119 406.9 193.352 405.967 192.752 404.9C192.152 403.833 191.719 402.733 191.452 401.6C191.119 400.4 190.919 399.2 190.852 398C190.719 396.733 190.652 395.5 190.652 394.3C190.652 391.5 190.752 388.767 190.952 386.1C191.086 383.367 191.286 380.6 191.552 377.8C191.619 376.667 191.686 375.5 191.752 374.3C191.819 373.1 191.919 371.933 192.052 370.8C192.186 369.467 192.619 368.433 193.352 367.7C194.019 366.9 194.786 366.3 195.652 365.9C194.119 364.367 193.352 362.533 193.352 360.4C193.352 358.6 193.952 356.933 195.152 355.4C195.886 354.533 196.752 353.867 197.752 353.4C198.819 352.867 199.952 352.6 201.152 352.6C202.952 352.6 204.619 353.2 206.152 354.4L213.052 360.2ZM247.993 373C248.993 373.8 249.76 374.733 250.293 375.8C250.826 376.867 251.226 378 251.493 379.2C251.76 380.4 251.893 381.633 251.893 382.9C251.96 384.1 251.993 385.3 251.993 386.5C252.26 386.633 252.493 386.8 252.693 387L259.593 392.7C260.393 393.367 260.793 394.333 260.793 395.6L260.093 398.5L259.393 400.9C258.726 402.7 257.926 404.5 256.993 406.3C256.06 408.033 254.926 409.6 253.593 411C252.326 412.467 250.826 413.633 249.093 414.5C247.426 415.367 245.526 415.8 243.393 415.8C240.926 415.8 238.893 415.1 237.293 413.7L232.793 409.9C232.26 411.767 231.226 413.2 229.693 414.2C228.16 415.2 226.426 415.7 224.493 415.7C223.56 415.7 222.56 415.533 221.493 415.2C220.493 414.867 219.56 414.333 218.693 413.6L211.793 407.8C211.06 407.2 210.46 406.467 209.993 405.6C209.526 404.667 209.326 403.567 209.393 402.3L210.693 372.2C210.826 369.933 211.726 368.167 213.393 366.9C215.06 365.567 216.993 364.9 219.193 364.9C220.393 364.9 221.593 365.167 222.793 365.7C224.06 366.167 225.126 366.933 225.993 368C227.06 367.133 228.226 366.4 229.493 365.8C230.826 365.2 232.26 364.9 233.793 364.9C235.46 364.9 236.893 365.1 238.093 365.5C239.293 365.9 240.293 366.467 241.093 367.2L247.993 373ZM265.13 370.2C265.264 369.667 265.43 369.2 265.63 368.8C265.897 368.4 266.164 368.033 266.43 367.7C267.297 366.767 268.297 366.067 269.43 365.6C270.63 365.133 271.864 364.9 273.13 364.9C274.13 364.9 275.13 365.067 276.13 365.4C277.197 365.667 278.13 366.167 278.93 366.9L285.83 372.7C286.564 373.3 287.164 374.067 287.63 375C288.097 375.867 288.33 376.933 288.33 378.2C288.33 379.733 288.297 381.267 288.23 382.8C288.164 384.333 288.097 385.867 288.03 387.4C287.897 390.467 287.797 393.533 287.73 396.6C287.73 399.6 287.697 402.633 287.63 405.7C287.564 407.5 287.497 409.467 287.43 411.6C287.43 413.733 287.364 415.933 287.23 418.2C286.964 421.8 286.43 425.433 285.63 429.1C284.897 432.833 283.697 436.2 282.03 439.2C280.364 442.2 278.13 444.633 275.33 446.5C272.597 448.433 269.03 449.4 264.63 449.4C262.097 449.4 259.764 449 257.63 448.2C255.497 447.467 253.597 446.4 251.93 445L245.03 439.2C242.964 437.467 241.364 435.333 240.23 432.8C239.097 430.333 238.53 427.533 238.53 424.4C238.53 422.6 238.764 420.8 239.23 419C239.697 417.2 240.397 415.5 241.33 413.9C242.264 412.367 243.43 411 244.83 409.8C246.164 408.6 247.73 407.7 249.53 407.1C247.864 405.433 246.83 403.467 246.43 401.2C245.964 398.867 245.73 396.567 245.73 394.3C245.73 391.833 245.797 389.367 245.93 386.9C246.064 384.433 246.197 381.933 246.33 379.4C246.397 378 246.464 376.567 246.53 375.1C246.597 373.633 246.697 372.2 246.83 370.8C247.164 368.667 248.13 367.167 249.73 366.3C251.397 365.367 253.23 364.9 255.23 364.9C255.897 364.9 256.63 364.967 257.43 365.1C258.297 365.233 259.13 365.467 259.93 365.8L265.13 370.2ZM300.766 355.1C301.5 355.767 302.1 356.533 302.566 357.4C303.033 358.267 303.266 359.333 303.266 360.6C303.266 362.4 303.2 364.233 303.066 366.1C302.933 367.9 302.8 369.7 302.666 371.5C302.533 373.967 302.366 376.4 302.166 378.8C302.033 381.2 301.9 383.633 301.766 386.1C302.5 386.233 303.166 386.533 303.766 387L310.666 392.7C311.466 393.367 311.866 394.333 311.866 395.6L311.666 397L310.766 400.4C310.166 402.267 309.433 404.133 308.566 406C307.766 407.8 306.766 409.4 305.566 410.8C304.366 412.267 302.933 413.433 301.266 414.3C299.6 415.233 297.666 415.7 295.466 415.7C294.066 415.7 292.833 415.5 291.766 415.1C290.7 414.7 289.766 414.167 288.966 413.5L282.066 407.7C281.133 406.9 280.366 405.967 279.766 404.9C279.166 403.833 278.733 402.733 278.466 401.6C278.133 400.4 277.933 399.2 277.866 398C277.733 396.733 277.666 395.5 277.666 394.3C277.666 389.767 277.8 385.267 278.066 380.8C278.333 376.333 278.633 371.833 278.966 367.3C279.1 365.167 279.2 363.033 279.266 360.9C279.333 358.7 279.466 356.533 279.666 354.4C279.933 352.2 280.866 350.467 282.466 349.2C284.066 347.933 285.966 347.3 288.166 347.3C289.1 347.3 290.066 347.467 291.066 347.8C292.133 348.133 293.1 348.667 293.966 349.4L300.766 355.1Z" fill="black"/>
<path d="M72.2 394.4C72.7333 393.667 73.2333 393.433 73.7 393.7C74.1667 393.967 74.4 394.3 74.4 394.7C74.2667 396.9 73.9667 399.167 73.5 401.5C73.0333 403.833 72.3 405.933 71.3 407.8C70.3667 409.733 69.1 411.3 67.5 412.5C65.9 413.7 63.9 414.3 61.5 414.3C60.1667 414.3 58.9 414.033 57.7 413.5C56.5 413.033 55.4333 412.2 54.5 411C53.6333 409.8 52.9667 408.233 52.5 406.3C52.0333 404.3 51.8667 401.833 52 398.9C52 398.233 52.1 397.133 52.3 395.6C52.5 394.067 52.6667 392.367 52.8 390.5C52.9333 388.633 52.9667 386.733 52.9 384.8C52.8333 382.867 52.5667 381.2 52.1 379.8C51.7 378.333 51 377.267 50 376.6C49.0667 375.933 47.7667 375.9 46.1 376.5C46.0333 379.033 45.9 381.7 45.7 384.5C45.5 387.3 45.1667 390.067 44.7 392.8C44.2333 395.533 43.5667 398.167 42.7 400.7C41.8333 403.167 40.6667 405.333 39.2 407.2C37.7333 409.067 35.9 410.567 33.7 411.7C31.5667 412.833 28.9667 413.4 25.9 413.4C21.8333 413.4 18.4667 412.6 15.8 411C13.2 409.4 11.2333 407.4 9.9 405C8.63333 402.533 8 399.9 8 397.1C8 394.233 8.53333 391.6 9.6 389.2C10.6667 386.733 12.2333 384.7 14.3 383.1C16.3667 381.5 18.9 380.7 21.9 380.7C24.3 380.7 26.0667 381.067 27.2 381.8C28.3333 382.533 29.0667 383.333 29.4 384.2C29.7333 385 29.7667 385.733 29.5 386.4C29.3 387 29.0667 387.233 28.8 387.1C28.2 386.5 27.5667 386.2 26.9 386.2C25.7 386.2 24.7667 386.733 24.1 387.8C23.4333 388.8 23.0667 389.933 23 391.2C23 392.4 23.3333 393.533 24 394.6C24.7333 395.667 25.9 396.2 27.5 396.2C29.3667 396.2 30.8333 395.3 31.9 393.5C32.9667 391.7 33.7333 389.567 34.2 387.1C34.7333 384.633 35.0333 382.1 35.1 379.5C35.2333 376.9 35.3333 374.8 35.4 373.2L36.2 353.9L36.9 342.7C36.9667 341.233 37.5667 340.133 38.7 339.4C39.8333 338.6 41.0667 338.2 42.4 338.2C43.7333 338.2 44.9667 338.6 46.1 339.4C47.2333 340.133 47.8 341.267 47.8 342.8C47.8 343.133 47.7667 343.833 47.7 344.9C47.6333 345.9 47.5667 347 47.5 348.2C47.4333 349.4 47.3667 350.533 47.3 351.6C47.2333 352.6 47.2 353.267 47.2 353.6C47.1333 355.333 47.0667 356.9 47 358.3C46.9333 359.7 46.8333 361.033 46.7 362.3C46.6333 363.567 46.5667 364.833 46.5 366.1C46.4333 367.367 46.3667 368.733 46.3 370.2H46.6C48.8 369.8 50.7667 368.7 52.5 366.9C54.2333 365.033 55.5667 362.867 56.5 360.4C57.5 357.867 58.0333 355.2 58.1 352.4C58.2333 349.6 57.7667 347.033 56.7 344.7C55.6333 342.367 53.9 340.433 51.5 338.9C49.1667 337.367 46.0333 336.633 42.1 336.7C39.0333 336.767 36.4 337.3 34.2 338.3C32.0667 339.3 30.2667 340.533 28.8 342C27.4 343.467 26.3333 345.067 25.6 346.8C24.9333 348.533 24.5667 350.133 24.5 351.6C24.5 353 24.7333 354.2 25.2 355.2C25.7333 356.133 26.5 356.6 27.5 356.6C28.0333 356.6 28.5667 356.467 29.1 356.2C29.7 355.933 30.1 355.433 30.3 354.7C30.3667 354.367 30.4333 354.133 30.5 354C30.5667 353.867 30.7667 353.867 31.1 354C31.9667 354.267 32.6667 354.933 33.2 356C33.8 357 34.2 358.2 34.4 359.6C34.6 361 34.5667 362.5 34.3 364.1C34.0333 365.633 33.4667 367.067 32.6 368.4C31.7333 369.667 30.5667 370.733 29.1 371.6C27.6333 372.4 25.7667 372.8 23.5 372.8C20.1 372.8 17.3333 371.867 15.2 370C13.0667 368.133 11.6333 365.8 10.9 363C10.1667 360.133 10.2 357.033 11 353.7C11.8667 350.367 13.5667 347.267 16.1 344.4C18.6333 341.533 22.0667 339.133 26.4 337.2C30.7333 335.2 36.0667 334.133 42.4 334C48.2 333.867 53.0667 334.6 57 336.2C60.9333 337.8 64 339.9 66.2 342.5C68.4 345.033 69.7333 347.867 70.2 351C70.7333 354.133 70.4333 357.167 69.3 360.1C68.2333 363.033 66.3667 365.667 63.7 368C61.0333 370.333 57.6667 372 53.6 373C56.8667 373 59.3 373.6 60.9 374.8C62.5 376 63.6 377.5 64.2 379.3C64.8 381.033 65.0667 382.967 65 385.1C64.9333 387.167 64.8667 389.1 64.8 390.9C64.8 392.633 64.9333 394.1 65.2 395.3C65.5333 396.5 66.4 397.1 67.8 397.1C68.7333 397.1 69.5667 396.833 70.3 396.3C71.0333 395.767 71.6667 395.133 72.2 394.4ZM111.491 389.7C111.557 389.367 111.724 389.133 111.991 389C112.324 388.867 112.624 388.833 112.891 388.9C113.157 388.9 113.391 389 113.591 389.2C113.791 389.333 113.857 389.533 113.791 389.8C113.257 392 112.291 394.133 110.891 396.2C109.557 398.267 107.924 400.1 105.991 401.7C104.124 403.3 102.024 404.6 99.6906 405.6C97.424 406.533 95.124 407 92.7906 407C88.524 407 85.0573 406 82.3906 404C79.724 401.933 77.824 399.4 76.6906 396.4C75.5573 393.333 75.1573 390.067 75.4906 386.6C75.824 383.067 76.824 379.867 78.4906 377C80.224 374.067 82.5906 371.7 85.5906 369.9C88.5906 368.1 92.224 367.4 96.4906 367.8C99.2906 368.067 101.491 368.9 103.091 370.3C104.691 371.7 105.724 373.333 106.191 375.2C106.724 377 106.724 378.867 106.191 380.8C105.657 382.733 104.691 384.4 103.291 385.8C101.891 387.133 100.057 388.033 97.7906 388.5C95.5906 388.9 93.024 388.5 90.0906 387.3C90.7573 390.5 92.024 392.767 93.8906 394.1C95.7573 395.433 97.7906 396.1 99.9906 396.1C100.857 396.1 101.891 395.967 103.091 395.7C104.291 395.367 105.457 394.933 106.591 394.4C107.791 393.8 108.824 393.1 109.691 392.3C110.557 391.5 111.157 390.633 111.491 389.7ZM98.9906 372.7C97.5906 372.7 96.324 373.133 95.1906 374C94.0573 374.867 93.0573 375.933 92.1906 377.2C91.3906 378.4 90.7573 379.733 90.2906 381.2C89.8906 382.6 89.724 383.9 89.7906 385.1C92.924 385.1 95.424 384.467 97.2906 383.2C99.1573 381.867 100.424 380.433 101.091 378.9C101.824 377.3 101.991 375.867 101.591 374.6C101.257 373.333 100.391 372.7 98.9906 372.7ZM188.223 344C189.29 340.933 190.69 338.533 192.423 336.8C194.157 335 196.023 333.767 198.023 333.1C200.09 332.367 202.123 332.167 204.123 332.5C206.123 332.767 207.923 333.4 209.523 334.4C211.123 335.4 212.357 336.733 213.223 338.4C214.157 340.067 214.523 341.933 214.323 344C214.123 346.067 213.323 347.867 211.923 349.4C210.523 350.933 208.657 351.7 206.323 351.7C206.457 351.033 206.157 350.367 205.423 349.7C204.757 349.033 203.857 348.667 202.723 348.6C201.59 348.6 200.323 349.1 198.923 350.1C197.523 351.033 196.223 352.833 195.023 355.5C193.69 358.367 192.523 361.8 191.523 365.8C190.523 369.733 189.49 373.833 188.423 378.1C187.357 382.367 186.157 386.6 184.823 390.8C183.49 395 181.823 398.767 179.823 402.1C177.823 405.433 175.357 408.133 172.423 410.2C169.557 412.333 166.057 413.4 161.923 413.4C159.923 413.4 158.023 412.9 156.223 411.9C154.49 410.967 152.923 409.533 151.523 407.6C150.19 405.733 149.123 403.4 148.323 400.6C147.59 397.733 147.29 394.5 147.423 390.9C147.49 387.5 147.757 384.1 148.223 380.7C148.757 377.233 149.29 373.8 149.823 370.4C150.357 366.933 150.823 363.567 151.223 360.3C151.69 356.967 151.957 353.733 152.023 350.6C152.09 348.133 151.89 346.033 151.423 344.3C150.957 342.5 150.29 341.067 149.423 340C148.623 338.933 147.69 338.167 146.623 337.7C145.557 337.233 144.423 337 143.223 337C140.423 337.067 138.423 338.2 137.223 340.4C136.023 342.6 135.29 345.4 135.023 348.8C134.89 350.933 135.19 352.833 135.923 354.5C136.723 356.1 137.723 356.9 138.923 356.9C139.457 356.9 140.023 356.767 140.623 356.5C141.223 356.233 141.59 355.733 141.723 355C141.857 354.667 141.957 354.433 142.023 354.3C142.09 354.167 142.29 354.167 142.623 354.3C143.49 354.567 144.19 355.233 144.723 356.3C145.323 357.3 145.723 358.5 145.923 359.9C146.123 361.3 146.09 362.8 145.823 364.4C145.557 365.933 144.99 367.367 144.123 368.7C143.257 369.967 142.09 371.033 140.623 371.9C139.157 372.7 137.29 373.1 135.023 373.1C132.69 373.1 130.623 372.633 128.823 371.7C127.023 370.767 125.49 369.533 124.223 368C122.957 366.4 121.99 364.6 121.323 362.6C120.723 360.533 120.457 358.4 120.523 356.2C120.59 352.733 121.257 349.633 122.523 346.9C123.79 344.1 125.457 341.767 127.523 339.9C129.657 338.033 132.123 336.6 134.923 335.6C137.79 334.6 140.823 334.1 144.023 334.1C146.623 334.1 149.09 334.467 151.423 335.2C153.823 335.867 155.923 336.967 157.723 338.5C159.523 340.033 160.923 342 161.923 344.4C162.99 346.8 163.523 349.633 163.523 352.9C163.523 354.233 163.29 356.233 162.823 358.9C162.423 361.5 161.99 364.4 161.523 367.6C161.123 370.733 160.79 373.967 160.523 377.3C160.257 380.633 160.257 383.667 160.523 386.4C160.857 389.133 161.523 391.4 162.523 393.2C163.59 394.933 165.223 395.8 167.423 395.8C169.423 395.8 171.157 394.933 172.623 393.2C174.157 391.467 175.523 389.2 176.723 386.4C177.923 383.533 178.99 380.3 179.923 376.7C180.923 373.033 181.857 369.3 182.723 365.5C183.59 361.633 184.457 357.833 185.323 354.1C186.19 350.367 187.157 347 188.223 344ZM212.752 389.7C212.819 389.367 212.986 389.133 213.252 389C213.586 388.867 213.886 388.833 214.152 388.9C214.419 388.9 214.652 389 214.852 389.2C215.052 389.333 215.119 389.533 215.052 389.8C214.652 391.6 214.119 393.5 213.452 395.5C212.852 397.5 212.019 399.367 210.952 401.1C209.952 402.767 208.686 404.167 207.152 405.3C205.619 406.433 203.752 407 201.552 407C199.819 407 198.419 406.633 197.352 405.9C196.352 405.167 195.552 404.2 194.952 403C194.419 401.8 194.052 400.433 193.852 398.9C193.652 397.367 193.552 395.833 193.552 394.3C193.552 390.433 193.686 386.633 193.952 382.9C194.286 379.1 194.619 375.2 194.952 371.2C195.019 370 195.619 369.133 196.752 368.6C197.952 368 199.219 367.733 200.552 367.8C201.952 367.8 203.186 368.1 204.252 368.7C205.386 369.233 205.919 370.033 205.852 371.1C205.586 374.5 205.319 377.767 205.052 380.9C204.852 384.033 204.786 387.3 204.852 390.7C204.852 392.5 205.119 393.867 205.652 394.8C206.252 395.667 206.919 396.1 207.652 396.1C208.319 396.1 208.919 395.9 209.452 395.5C210.052 395.033 210.552 394.467 210.952 393.8C211.352 393.133 211.686 392.433 211.952 391.7C212.286 390.967 212.552 390.3 212.752 389.7ZM201.152 365.3C199.819 365.3 198.652 364.833 197.652 363.9C196.719 362.9 196.252 361.733 196.252 360.4C196.252 359.067 196.719 357.933 197.652 357C198.652 356 199.819 355.5 201.152 355.5C202.486 355.5 203.619 356 204.552 357C205.552 357.933 206.052 359.067 206.052 360.4C206.052 361.733 205.552 362.9 204.552 363.9C203.619 364.833 202.486 365.3 201.152 365.3ZM248.693 389.7C248.76 389.367 248.926 389.133 249.193 389C249.526 388.867 249.826 388.833 250.093 388.9C250.36 388.9 250.593 389 250.793 389.2C250.993 389.333 251.06 389.533 250.993 389.8C250.593 391.533 249.993 393.433 249.193 395.5C248.46 397.5 247.493 399.367 246.293 401.1C245.16 402.833 243.76 404.267 242.093 405.4C240.493 406.533 238.626 407.1 236.493 407.1C234.426 407.033 232.626 406.133 231.093 404.4C229.56 402.667 228.826 399.9 228.893 396.1C228.893 395.5 228.993 394.6 229.193 393.4C229.46 392.2 229.726 390.867 229.993 389.4C230.26 387.933 230.46 386.433 230.593 384.9C230.793 383.367 230.826 381.967 230.693 380.7C230.626 379.433 230.326 378.4 229.793 377.6C229.326 376.8 228.56 376.4 227.493 376.4C226.293 376.4 225.226 376.933 224.293 378L223.193 402.5C223.126 404.033 222.526 405.167 221.393 405.9C220.26 406.633 218.993 407 217.593 407C216.26 407 215.026 406.633 213.893 405.9C212.826 405.1 212.293 403.933 212.293 402.4L213.593 372.3C213.66 370.833 214.26 369.733 215.393 369C216.526 368.2 217.76 367.8 219.093 367.8C220.493 367.8 221.726 368.2 222.793 369C223.926 369.733 224.493 370.867 224.493 372.4V373.7C225.693 372.167 227.06 370.8 228.593 369.6C230.126 368.4 231.86 367.8 233.793 367.8C236.46 367.8 238.393 368.467 239.593 369.8C240.793 371.067 241.56 372.7 241.893 374.7C242.293 376.633 242.393 378.767 242.193 381.1C241.993 383.367 241.793 385.5 241.593 387.5C241.46 389.433 241.493 391.067 241.693 392.4C241.893 393.667 242.593 394.3 243.793 394.3C244.926 394.3 245.926 393.8 246.793 392.8C247.726 391.733 248.36 390.7 248.693 389.7ZM267.63 372.3C267.697 370.833 268.297 369.733 269.43 369C270.564 368.2 271.797 367.8 273.13 367.8C274.464 367.8 275.697 368.2 276.83 369C277.964 369.733 278.53 370.867 278.53 372.4C278.33 377 278.197 381.567 278.13 386.1C278.064 390.633 277.964 395.2 277.83 399.8C277.764 402.333 277.664 405.1 277.53 408.1C277.464 411.1 277.23 414.1 276.83 417.1C276.497 420.167 275.93 423.1 275.13 425.9C274.397 428.767 273.297 431.267 271.83 433.4C270.364 435.6 268.464 437.367 266.13 438.7C263.864 440.033 261.064 440.7 257.73 440.7C254.13 440.7 251.13 439.9 248.73 438.3C246.33 436.767 244.53 434.8 243.33 432.4C242.13 430.067 241.497 427.5 241.43 424.7C241.364 421.967 241.864 419.433 242.93 417.1C243.997 414.767 245.597 412.8 247.73 411.2C249.797 409.667 252.397 408.933 255.53 409C257.064 409 258.23 409.3 259.03 409.9C259.83 410.5 260.397 411.133 260.73 411.8C261.064 412.533 261.197 413.167 261.13 413.7C261.064 414.233 260.897 414.433 260.63 414.3C259.897 413.7 259.23 413.4 258.63 413.4C257.497 413.4 256.597 413.9 255.93 414.9C255.264 415.9 254.93 417 254.93 418.2C254.93 419.4 255.264 420.5 255.93 421.5C256.664 422.5 257.797 423 259.33 423C260.664 423 261.764 422.567 262.63 421.7C263.564 420.833 264.297 419.667 264.83 418.2C265.43 416.8 265.864 415.233 266.13 413.5C266.464 411.767 266.664 410 266.73 408.2C266.864 406.467 266.93 404.833 266.93 403.3C266.997 401.7 267.03 400.4 267.03 399.4C265.964 401.533 264.597 403.333 262.93 404.8C261.264 406.267 259.164 407 256.63 407C254.964 407 253.597 406.633 252.53 405.9C251.53 405.167 250.73 404.2 250.13 403C249.53 401.8 249.13 400.433 248.93 398.9C248.73 397.367 248.63 395.833 248.63 394.3C248.697 390.433 248.83 386.633 249.03 382.9C249.23 379.1 249.464 375.2 249.73 371.2C249.797 370 250.397 369.133 251.53 368.6C252.73 368 253.997 367.733 255.33 367.8C256.73 367.8 257.964 368.1 259.03 368.7C260.164 369.233 260.697 370.033 260.63 371.1C260.43 374.5 260.23 377.767 260.03 380.9C259.897 384.033 259.864 387.3 259.93 390.7C259.93 392.5 260.197 393.867 260.73 394.8C261.33 395.667 262.03 396.1 262.83 396.1C263.83 396.1 264.63 395.633 265.23 394.7C265.83 393.7 266.297 392.467 266.63 391C266.964 389.533 267.197 387.867 267.33 386C267.464 384.133 267.53 382.333 267.53 380.6C267.597 378.867 267.597 377.267 267.53 375.8C267.53 374.267 267.564 373.1 267.63 372.3ZM299.766 389.7C299.833 389.367 300 389.133 300.266 389C300.6 388.867 300.9 388.833 301.166 388.9C301.433 388.9 301.666 389 301.866 389.2C302.066 389.333 302.133 389.533 302.066 389.8C301.666 391.533 301.133 393.433 300.466 395.5C299.866 397.5 299.033 399.367 297.966 401.1C296.966 402.767 295.7 404.167 294.166 405.3C292.633 406.433 290.766 407 288.566 407C286.833 407 285.433 406.633 284.366 405.9C283.366 405.167 282.566 404.2 281.966 403C281.433 401.8 281.066 400.433 280.866 398.9C280.666 397.367 280.566 395.833 280.566 394.3C280.566 387.633 280.833 381.033 281.366 374.5C281.9 367.967 282.3 361.367 282.566 354.7C282.633 353.233 283.233 352.133 284.366 351.4C285.5 350.667 286.733 350.3 288.066 350.3C289.466 350.3 290.7 350.667 291.766 351.4C292.9 352.133 293.466 353.267 293.466 354.8C293.2 360.8 292.833 366.8 292.366 372.8C291.9 378.733 291.733 384.7 291.866 390.7C291.866 392.5 292.133 393.867 292.666 394.8C293.266 395.667 293.933 396.1 294.666 396.1C295.4 396.1 296.033 395.867 296.566 395.4C297.166 394.933 297.666 394.367 298.066 393.7C298.466 393.033 298.8 392.333 299.066 391.6C299.333 390.867 299.566 390.233 299.766 389.7Z" fill="#FBE4BE"/>
</svg>
